<?xml version="1.0" encoding="utf-8"?>
<!-- Generator: Adobe Illustrator 24.3.0, SVG Export Plug-In . SVG Version: 6.00 Build 0)  -->
<svg version="1.1" id="Layer_1" xmlns="http://www.w3.org/2000/svg" xmlns:xlink="http://www.w3.org/1999/xlink" x="0px" y="0px"
	 viewBox="0 0 1127.2 417.4" style="enable-background:new 0 0 1127.2 417.4;" xml:space="preserve">
<style type="text/css">
	.st0{display:none;}
	.st1{fill:none;stroke:#FFFFFF;stroke-miterlimit:10;}
	.st2{fill-rule:evenodd;clip-rule:evenodd;fill:url(#Inside_Border_1_);}
	.st3{fill:#FFFFFF;stroke:#33499C;stroke-width:0.25;stroke-miterlimit:10;}
	.st4{fill:none;}
	.st5{fill:#FFFFFF;}
	.st6{fill:none;stroke:#F7DF15;stroke-width:2;stroke-miterlimit:10;}
	.st7{fill:none;stroke:#F7DF15;stroke-miterlimit:10;}
	.st8{fill:url(#Background_1_);}
	.st9{fill:none;stroke:#31489C;stroke-width:0.5;stroke-miterlimit:10;}
	.st10{fill:none;stroke:#FFFFFF;stroke-width:2.3;stroke-miterlimit:10;}
	.st11{fill:url(#AR.Background_1_);stroke:#33479D;stroke-width:2;stroke-miterlimit:10;}
	.st12{fill:#33479D;}
	.st13{fill:#FDD727;}
	.st14{fill-rule:evenodd;clip-rule:evenodd;fill:url(#SVGID_1_);}
	.st15{fill-rule:evenodd;clip-rule:evenodd;fill:url(#SVGID_2_);}
	.st16{fill-rule:evenodd;clip-rule:evenodd;fill:url(#SVGID_3_);}
	.st17{fill-rule:evenodd;clip-rule:evenodd;fill:url(#SVGID_4_);}
	.st18{fill-rule:evenodd;clip-rule:evenodd;fill:url(#SVGID_5_);}
	.st19{fill-rule:evenodd;clip-rule:evenodd;fill:#FFFFFF;stroke:#666234;stroke-width:0.25;stroke-miterlimit:10;}
	.st20{fill-rule:evenodd;clip-rule:evenodd;fill:url(#SVGID_6_);stroke:#666234;stroke-width:0.25;stroke-miterlimit:10;}
	.st21{fill-rule:evenodd;clip-rule:evenodd;fill:#FFFFFF;}
	.st22{fill-rule:evenodd;clip-rule:evenodd;fill:url(#SVGID_7_);stroke:#666234;stroke-width:0.25;stroke-miterlimit:10;}
	.st23{fill:#2B3279;}
</style>
<g id="Black_outlined" class="st0">
</g>
<g id="Black" class="st0">
</g>
<g id="Color_Outlined" class="st0">
</g>
<g id="Color">
	<path id="Outside_Border_3_" class="st1" d="M207.3,14.6c105.9,0,192.3,86.7,192.3,192.3c0,104.9-86.4,190.9-192.3,190.9
		c-105.2,0-190.9-86-190.9-190.9C16.4,101.3,102.1,14.6,207.3,14.6L207.3,14.6z"/>
	
		<linearGradient id="Inside_Border_1_" gradientUnits="userSpaceOnUse" x1="76.0871" y1="343.3504" x2="338.808" y2="80.6295" gradientTransform="matrix(1 0 0 -1 0 418)">
		<stop  offset="2.910491e-02" style="stop-color:#33479D"/>
		<stop  offset="1" style="stop-color:#33479D"/>
	</linearGradient>
	<path id="Inside_Border_3_" class="st2" d="M207.3,20.1c102.8,0,186.7,84.2,186.7,186.7c0,101.8-83.9,185.3-186.7,185.3
		C105.2,392.1,22,308.7,22,206.9C22,104.3,105.2,20.1,207.3,20.1L207.3,20.1z"/>
	<ellipse id="White_center_3_" class="st3" cx="208" cy="206.3" rx="137.4" ry="136.7"/>
	<g id="English_title_3_">
		<path class="st4" d="M207.3,22.6L207.3,22.6c-101.3,0-184,83.1-184,184.3c0,100.5,82.6,182.9,184,182.9
			c102,0,185.3-82.4,185.3-182.9C392.6,105.6,309.3,22.6,207.3,22.6z"/>
		<path class="st5" d="M51,275.7c-1.1-1.4-3-4-4.1-7c-1.5-4.1-1.6-7.4-0.4-10.3c1.2-2.8,3.7-5,7-6.2c7.5-2.8,13.8,1,16.6,8.4
			c1.1,2.9,1.4,5.3,1.3,6.6l-4.5,0.5c0.1-1.4-0.1-3.1-1-5.6c-1.6-4.2-5.2-6.5-10.1-4.7c-4.6,1.8-6.3,5.7-4.7,9.8
			c0.4,1.2,0.9,2,1.3,2.4l4.7-1.8l-1.3-3.5l4-1.5l3.2,8.4L51,275.7z"/>
		<path class="st5" d="M77.2,299.1c-6.7,4.1-13.3,2.6-16.9-3.4c-3.7-6.1-1.4-12.4,4.5-16c6.1-3.8,13.1-2.7,16.8,3.3
			C85.4,289.3,82.9,295.7,77.2,299.1z M67.8,284.6c-4,2.5-5.7,6.1-3.7,9.2c1.9,3.1,6,3.1,10,0.6c3.7-2.3,5.7-6,3.8-9.1
			C75.9,282.1,71.8,282.1,67.8,284.6z"/>
		<path class="st5" d="M91.8,298.5l3.6,4.1l-14.6,12.9l6.3,7.1l-3.4,3l-9.9-11.2L91.8,298.5z"/>
		<path class="st5" d="M107,314.7l4.2,3.5l-12.5,14.9l7.3,6.1l-2.9,3.5L91.6,333L107,314.7z"/>
		<path class="st5" d="M129.4,331.6l-13,20.1l-4.6-3l13-20.1L129.4,331.6z"/>
		<path class="st5" d="M129.5,352.9c1,1.3,2.7,2.9,4.8,3.9c2.2,1.1,3.9,0.7,4.6-0.7c0.6-1.3,0-2.6-2.2-4.8c-3-3-4.4-6.1-2.9-9.2
			c1.8-3.7,6.2-5.1,11.3-2.6c2.4,1.2,4,2.5,5,3.7l-3,3.4c-0.7-0.8-1.9-2.2-4-3.2s-3.6-0.5-4.1,0.6c-0.7,1.4,0.3,2.6,2.6,5
			c3.2,3.2,4,6.1,2.5,9.1c-1.7,3.6-6,5.4-11.9,2.6c-2.5-1.2-4.6-3-5.5-4.2L129.5,352.9z"/>
		<path class="st5" d="M175.4,350.3l-2.6,13.6c-0.8,4.1,0.4,6.4,3.1,6.9c2.8,0.5,4.7-1.1,5.5-5.3l2.6-13.6l5.3,1l-2.5,13.2
			c-1.4,7.3-5.7,10-11.9,8.9c-5.9-1.1-8.8-5.1-7.4-12.6l2.5-13.2L175.4,350.3z"/>
		<path class="st5" d="M197.1,377.5l0.4-24l6.3,0.1l4.8,8.9c1.4,2.5,2.8,5.6,3.8,8.3h0.1c-0.3-3.2-0.4-6.4-0.3-10l0.1-7l5,0.1
			l-0.4,24l-5.7-0.1l-5-9.3c-1.4-2.6-2.9-5.7-4-8.5h-0.1c0.1,3.2,0.1,6.6,0,10.5l-0.1,7.2L197.1,377.5z"/>
		<path class="st5" d="M231.2,351.8l3.4,23.7l-5.4,0.8l-3.4-23.7L231.2,351.8z"/>
		<path class="st5" d="M252.1,371.9l-14-20.9l5.7-1.6l5.6,8.9c1.6,2.5,3,4.9,4.4,7.7h0.1c-0.2-2.9-0.3-5.9-0.2-8.7l0.1-10.7l5.5-1.6
			l-1.2,25.3L252.1,371.9z"/>
		<path class="st5" d="M284,348.7l-8,3.8l2.4,5.1l8.9-4.2l1.9,4l-13.8,6.6l-10.3-21.7l13.4-6.3l1.9,4l-8.5,4l2.1,4.5l8-3.8
			L284,348.7z"/>
		<path class="st5" d="M285.7,332.3c1.3-1.2,3.3-2.9,5.7-4.5c2.9-2,5.3-3,7.5-2.8c1.8,0.1,3.4,1.1,4.7,2.9c1.7,2.5,1.1,5.5-0.1,7.3
			l0.1,0.1c1.8-0.4,3.4,0.4,5.2,1.9c2.1,1.8,4.5,4,5.4,4.5l-4.6,3.1c-0.7-0.3-2.3-1.6-4.5-3.7s-3.5-2.2-5.4-1l-1.3,0.9l5.3,7.8
			l-4.4,3L285.7,332.3z M295.9,337.8l1.8-1.2c2.2-1.5,2.8-3.6,1.6-5.3c-1.2-1.8-3.1-1.9-5.2-0.5c-1.1,0.7-1.6,1.3-1.9,1.5
			L295.9,337.8z"/>
		<path class="st5" d="M318.4,330.5c1.6-0.5,3.7-1.5,5.4-3.1c1.8-1.7,2-3.4,1-4.5s-2.4-0.9-5.2,0.3c-3.8,1.7-7.2,1.9-9.7-0.6
			c-2.8-3-2.5-7.6,1.6-11.5c2-1.9,3.8-2.8,5.3-3.3l2.1,4c-1,0.3-2.7,1-4.4,2.6s-1.8,3.2-0.9,4.1c1.1,1.1,2.5,0.7,5.6-0.6
			c4.1-1.8,7.1-1.6,9.4,0.9c2.8,2.9,2.9,7.5-1.9,12.1c-2,1.9-4.4,3.2-5.9,3.6L318.4,330.5z"/>
		<path class="st5" d="M325.5,296.2l18.6,15.1l-3.4,4.2l-18.6-15.1L325.5,296.2z"/>
		<path class="st5" d="M337.4,287.4l-3.4,5.5l-3.9-2.4l9.7-15.7l3.9,2.4l-3.4,5.6l16.5,10.2l-2.9,4.6L337.4,287.4z"/>
		<path class="st5" d="M367.1,272.6l-9.1-3.7l-16,1.7l2.3-5.7l6.3-0.1c1.9,0,3.3,0,5,0v-0.1c-1.2-1.1-2.3-2.1-3.6-3.4l-4.4-4.4
			l2.3-5.6l10,12.6l9.3,3.8L367.1,272.6z"/>
	</g>
	<path id="Arabic_title_7_" class="st5" d="M142.1,67.9l-0.9,1c-0.4,0.2-0.7,0.4-1.1,0.6c-0.4,0.2-0.8,0.3-1.1,0.4
		c-0.4,0.1-0.8,0.2-1.2,0.3c-0.4,0.1-0.8,0.2-1.3,0.3c-0.3,0.8-0.7,1.5-1.2,2c-0.2,0.2-0.5,0.4-0.8,0.7c-0.3,0.2-0.7,0.5-1.1,0.8
		l-2.6,1.6c1.5,2.4,1.8,4.7,0.9,6.7c-0.8,1.8-2.5,3.5-5.2,5.2c-1.3,0.8-2.5,1.4-3.6,1.8s-2.2,0.6-3.1,0.5c-1,0-1.8-0.3-2.6-0.7
		c-0.8-0.4-1.4-1.1-1.9-1.9c-0.9-1.4-1.5-2.9-1.8-4.4c-0.3-1.7-0.5-4-0.4-7l1.4,0.1c0.1,2.4,0.2,4.1,0.4,5.1c0.2,1,0.5,1.9,1.1,2.8
		c0.7,1.1,1.8,1.6,3.5,1.6c1.6,0,3.4-0.7,5.3-1.9c1.9-1.2,3.2-2.5,4.1-4.1c0.8-1.5,0.9-2.8,0.3-3.9c-0.5-0.8-1.2-1.5-2.2-2.2
		c-0.2-0.1-0.5-0.4-1-0.6c-0.4-0.3-1-0.6-1.7-1l-1.2-4.9l0.2-0.1c1.3,0.7,2.3,1.3,3,1.9c0.8,0.7,1.6,1.6,2.3,2.8l1.4-0.9
		c1.6-1,2.6-1.9,3-2.6c0.4-0.8,0.3-1.6-0.3-2.6c-0.4-0.7-0.5-1.4-0.3-1.9l0.4-0.8l0.1-0.1c0.2,0.2,0.3,0.4,0.5,0.6
		c0.2,0.2,0.3,0.5,0.5,0.7c0.4,0.6,0.8,1.4,1.2,2.5c1.4-0.3,2.4-0.7,3.3-1c-0.2-0.4-0.7-0.8-1.3-1.1c-0.6-0.4-1-0.6-1.1-0.8
		c-0.2-0.2-0.2-0.6-0.2-1l0.1-2.8l0.1-0.1c1.2,0.9,2.2,1.9,3,3.2L142.1,67.9z M145.6,67.6l-1.3,0.6l-1,0.4l-5,1.5l1.4-4.6l2.1-1.2
		l1.6-0.8L145.6,67.6z M148.9,66.1l-1.7,1l-2.9,1l-2.4-3.9l1.7-0.8l3.4-1.5L148.9,66.1z M152.3,64.7l-1.6,1.1l-3.4,1.3l-1.9-4.4
		l1.7-0.8l1.7-0.7l1.7-0.7L152.3,64.7z M155.6,63.4l-1.1,0.8l-3.9,1.6l-1.9-4.7l3.4-1.4l1.8-0.7L155.6,63.4z M159,62.2l-1.1,0.8
		l-4,1.5l-1.8-4.7l5.2-2L159,62.2z M166.6,60l-8.6,2.9l0,0l-1.1,0.4l-1.5-4.7l2-0.8l5.5-1.8l-6.2-11.2l-1.4-0.4
		c-0.2-0.7-0.4-1.5-0.4-2.4s0.1-2.1,0.3-3.4l1,0.1c0,0.1,0,0.1,0,0.2c0,0.1,0,0.2,0.1,0.3c0.2,0.7,1.4,1.1,3.6,1.3
		c0.3,1.6,0.4,3.2,0.2,4.5h-0.7l5.6,10.2L166.6,60z M179.8,55.2c0.6,2.1,0.2,4.3-1,6.8s-2.7,3.9-4.3,4.4c-1,0.3-2.2,0.2-3.5-0.1
		c-1.3-0.3-3.5-1.1-6.4-2.3l0.5-1.2c1.3,0.4,2.3,0.7,3,0.8c1,0.1,2,0.1,3-0.2c2.4-0.6,4.5-2.8,6.3-6.5v-0.1
		c-0.2,0.1-0.4,0.2-0.6,0.2c-0.2,0.1-0.4,0.1-0.5,0.2c-0.6,0.2-1.2,0.2-1.7,0.1c-0.5-0.1-1-0.2-1.4-0.5s-0.8-0.7-1.1-1.1
		c-0.3-0.5-0.6-1.1-0.8-1.7c-0.5-1.8-0.5-3.6-0.1-5.5c0.4-2,1.2-3.2,2.3-3.5c0.9-0.3,1.9,0.2,2.9,1.3s1.8,2.6,2.3,4.4L179.8,55.2z
		 M176.7,52.1c-0.9-1.8-1.8-2.6-2.8-2.3c-0.4,0.1-0.6,0.3-0.8,0.7c-0.1,0.3-0.1,0.7-0.1,1c0.3,1,1.3,1.3,3,0.8L176.7,52.1z
		 M182.7,55.8l-1.2,0.6l-3.9,0.8l-1.2-4.9l3.6-0.8l1.8-0.3L182.7,55.8z M186.3,55.2l-1.2,0.6l-4.2,0.8l-0.9-5l3.6-0.7l1.8-0.3
		L186.3,55.2z M189.8,54.7l-1.2,0.6l-4.2,0.7l-0.8-5l2.6-0.4l2.9-0.3L189.8,54.7z M206.8,53.5l-2.3-0.3l-3.1,0.7l-12.7,1.4l-2.1,0.3
		l-0.3-5l13.2-1.5c-3-2.6-5.6-3.8-7.8-3.5c-0.6,0.1-1.2,0.2-2,0.4c1.1-3.2,2.6-4.8,4.7-5c1.2-0.1,2.4,0.2,3.7,1.1
		c0.5,0.3,1.2,0.8,2,1.5c0.8,0.6,1.7,1.5,2.8,2.5s1.8,1.6,2.3,1.8c0.1,0.1,0.3,0.1,0.5,0.2c0.2,0.1,0.5,0.1,0.8,0.2
		c0.3,0.1,0.6,0.1,0.8,0.2s0.6,0.1,0.8,0.1L206.8,53.5z M201.2,58.6l-1.7,3.8l-4-1.8l1.6-3.8L201.2,58.6z M235.3,50.3l-0.4,4.5
		l-1.3,0.3l-1.3-0.1c-0.3,0-0.6-0.1-0.9-0.1c-0.3-0.1-0.5-0.2-0.7-0.3s-0.4-0.2-0.5-0.4c-0.2-0.2-0.3-0.3-0.4-0.6
		c-0.1-0.2-0.3-0.5-0.4-1c-0.1-0.5-0.2-0.9-0.3-1.5c-0.1-0.5-0.1-1.1-0.2-1.7c-0.1-0.6-0.1-1.1-0.1-1.6h-0.2l-2.5,2.7
		c-0.3,0-0.7-0.1-1.1-0.1c-0.4-0.1-0.8-0.1-1.1-0.2c-0.4-0.1-0.7-0.1-1.1-0.2c-0.3-0.1-0.6-0.2-0.9-0.2c-0.9-0.3-1.5-0.6-1.9-0.8
		c-0.3-0.2-0.5-0.5-0.5-0.7s0.1-0.4,0.2-0.7c0.1-0.3,0.3-0.6,0.4-0.9c0.2-0.3,0.4-0.7,0.6-1c0.2-0.3,0.4-0.7,0.6-1s0.4-0.6,0.6-0.8
		c0.2-0.2,0.3-0.4,0.4-0.6c0.1-0.1,0.3-0.3,0.6-0.5s0.6-0.4,1-0.7c0.4-0.2,0.8-0.5,1.2-0.8s0.9-0.5,1.3-0.8l2.1-1.3l-0.1-1.9l1.7-3
		h0.2l1.2,13.6c0,0.4,0.1,0.7,0.3,1s0.3,0.5,0.6,0.6c0.2,0.2,0.5,0.3,0.8,0.3c0.3,0.1,0.6,0.2,1,0.2L235.3,50.3z M233.1,28.6
		l-2.4,3.5l-3-2l-1.3,1.9l-3.3-2.2l2.3-3.5l3,2l1.3-1.9L233.1,28.6z M228.4,41.9h-0.1c-0.1,0.3-0.3,0.6-0.5,0.8s-0.5,0.4-0.8,0.5
		l-3.3,1.8v0.2c0.2,0.1,0.4,0.2,0.7,0.3s0.6,0.2,0.9,0.3s0.7,0.2,1.1,0.2c0.4,0.1,0.7,0.1,1,0.1s0.6,0,0.8-0.2
		c0.2-0.1,0.4-0.3,0.5-0.5L228.4,41.9z M246.2,57l-1.3,0.1l-1.4-0.2c-2-0.3-3.3-1.4-3.9-3.2c-1.6,1.4-3.7,1.9-6.3,1.5l-1.9-0.3
		l0.9-5l1.9,0.3c1,0.2,1.6,0.2,2,0.2c0.2,0,0.5,0,0.8-0.1s0.7-0.2,1.1-0.3c-0.5-1.5-1-2.4-1.6-2.5c-0.3,0-0.5,0.1-0.9,0.5l-0.8-0.2
		c0.3-1.1,0.6-2.1,1-2.8s0.8-1.3,1.3-1.7c0.4-0.4,0.9-0.7,1.5-0.8s1.2-0.1,2.1,0c1.7,0.3,3,0.9,3.8,1.7c0.9,0.9,1.2,1.8,1,3
		c-0.2,1.1-1,2.3-2.5,3.8c0.3,0.6,0.7,0.9,1.4,1l2.7,0.5L246.2,57z M248.9,57.8l-1.3,0.1l-4.1-1l1.1-4.9l2.5,0.4l2.9,0.7L248.9,57.8
		z M252.8,58.7h-1.3l-4.4-1l1.5-4.9l5.4,1.3L252.8,58.7z M255.3,59.4h-1.4l-4.2-1.1l1.4-4.9l2.7,0.7l2.6,0.8L255.3,59.4z
		 M269.5,64.2l-1.3-0.1c-1.1-0.5-2.2-1.1-3.2-1.9c-1-0.8-2-1.6-3-2.6c-1.5,1.2-3.2,1.4-5.2,0.8l-2.7-0.9l-0.8-0.2l1.6-4.8l0.3,0.1
		l3.2,1c2.2,0.7,3.8,0.5,4.9-0.7c1.1-1.3,2.4-2.2,3.8-2.9c1.2-0.5,2.1-0.7,2.8-0.5c0.6,0.2,1.1,1.4,1.3,3.5c0.3,2.2,0.2,4.1-0.4,5.7
		L269.5,64.2z M267.9,58.1c0-0.2,0-0.4,0-0.6c0-0.3-0.1-0.6-0.3-1c-0.3-0.9-0.7-1.4-1.1-1.5c-0.5-0.2-1,0.2-1.7,1.2
		c0.8,0.6,1.4,1.1,1.8,1.5c0.4,0.3,0.8,0.6,1.1,0.7L267.9,58.1z M277,67.5l-1.3-0.2c-0.7-0.3-1.2-0.7-1.6-1.1
		c-0.4-0.5-0.6-1.1-0.7-1.7c-0.1-1.5,0.4-3.7,1.5-6.5l2.5-6.1c0.6-1.6,0.7-3.1,0.1-4.5L281,44l0.2,0.1c0.4,2.3,0.1,4.8-0.9,7.3
		l-1.9,4.6c-1.7,4.1-2,6.3-0.8,6.8l1.3,0.6L277,67.5z M280.9,69.3l-1.3-0.2l-3.9-1.7l2-4.6l1.1,0.5l4,1.8L280.9,69.3z M284.5,71.1
		l-1.3-0.2l-3.8-1.9l2.1-4.5l1.2,0.5l3.8,1.9L284.5,71.1z M299.1,79.8l-1.7-1.6l-2.9-1.2l-11.1-6.1l-1.8-1l2.5-4.3l2.8,1.3l8.9,5
		c-1-3.8-2.5-6.3-4.4-7.4c-0.5-0.3-1.1-0.5-1.9-0.8c2.7-2,4.9-2.5,6.7-1.4c1,0.6,1.8,1.6,2.5,3c0.2,0.6,0.5,1.4,0.8,2.3
		c0.3,1,0.6,2.2,0.9,3.6s0.6,2.3,0.9,2.8c0.1,0.1,0.2,0.3,0.3,0.5c0.2,0.2,0.3,0.4,0.5,0.6s0.4,0.4,0.6,0.6s0.4,0.4,0.6,0.6
		L299.1,79.8z M291.5,81l-3.5,2.1l-2.3-3.8l3.5-2.2L291.5,81z"/>
	<g id="C.lines_3_">
		<path class="st6" d="M40.9,229.1c-1-7.3-1.5-14.7-1.5-22.3c0-39.9,13.9-76.8,37.2-105.9"/>
		<path class="st6" d="M339.1,101c23.4,29.1,37.5,65.9,37.5,105.9c0,7.6-0.5,15-1.5,22.3"/>
		<path class="st7" d="M49.9,217.7c-0.2-3.6-0.4-7.2-0.4-10.9c0-35.2,11.5-67.8,30.9-94.3"/>
		<path class="st7" d="M335.3,112.5c19.6,26.4,31.2,59.1,31.2,94.3c0,3.6-0.1,7.2-0.4,10.8"/>
	</g>
	<g id="Inside_Body_3_">
		
			<linearGradient id="Background_1_" gradientUnits="userSpaceOnUse" x1="208" y1="97.3" x2="208" y2="321.3" gradientTransform="matrix(1 0 0 -1 0 418)">
			<stop  offset="0.1732" style="stop-color:#30439B"/>
			<stop  offset="0.3156" style="stop-color:#375BA9"/>
			<stop  offset="0.4566" style="stop-color:#82908D"/>
			<stop  offset="0.5391" style="stop-color:#AAB475"/>
			<stop  offset="0.5441" style="stop-color:#ADB673"/>
			<stop  offset="0.6052" style="stop-color:#CFCB5E"/>
			<stop  offset="0.6628" style="stop-color:#E8DC48"/>
			<stop  offset="0.715" style="stop-color:#F8E735"/>
			<stop  offset="0.757" style="stop-color:#FDEC2C"/>
			<stop  offset="0.933" style="stop-color:#F6D110"/>
		</linearGradient>
		<polygon id="Background_13_" class="st8" points="252.3,96.7 163.7,96.7 100.9,162.3 100.9,255.1 163.7,320.7 252.3,320.7 
			315.1,255.1 315.1,162.3 		"/>
		<polygon id="Background_6_" class="st9" points="252.8,95.6 163.2,95.6 99.9,161.8 99.9,255.6 163.2,321.9 252.8,321.9 
			316.1,255.6 316.1,161.8 		"/>
		<g id="Sun_Lines_3_">
			<line class="st10" x1="208" y1="126.7" x2="208" y2="238.6"/>
			<path class="st10" d="M236,117.4c0,0,60.6,157,60.8,156.8"/>
			<path class="st10" d="M247.7,104l0.8,1.3c0,0,66.6,106.8,66.6,106.4"/>
			<path class="st10" d="M180.3,117.4c0,0-61,157.3-60.8,156.8"/>
			<path class="st10" d="M168.7,104l-0.8,1.3c0,0-66.9,107-66.6,106.4"/>
		</g>
		
			<linearGradient id="AR.Background_1_" gradientUnits="userSpaceOnUse" x1="208" y1="289.6" x2="208" y2="321.3" gradientTransform="matrix(1 0 0 -1 0 418)">
			<stop  offset="0.1744" style="stop-color:#F1E53C"/>
			<stop  offset="0.5663" style="stop-color:#F6D12D"/>
			<stop  offset="1" style="stop-color:#FDB91A"/>
		</linearGradient>
		<path id="AR.Background_3_" class="st11" d="M252.5,96.7c-6.4,18.5-23.9,31.7-44.5,31.7s-38.2-13.3-44.5-31.7"/>
		<g id="Arabic_title_6_">
			<rect x="146.1" y="101.3" class="st4" width="123.9" height="23"/>
			<path class="st12" d="M198.1,107.7l1.6-2.6l0.6,9.3l-1.6,2.6L198.1,107.7z"/>
			<path class="st12" d="M207,117.1c-0.2,0.2-0.4,0.4-0.6,0.7c-0.2,0.3-0.3,0.6-0.5,0.8c-0.4,0.8-0.9,1.2-1.5,1.4
				c-0.5,0.1-1.2,0.1-2,0c-0.3,0-0.9-0.2-1.8-0.5c-1-0.3-1.5-0.5-1.7-0.7c-0.1-0.1-0.1-0.2,0.1-0.3c1-0.4,2.1-0.6,3.2-0.8
				c1.1-0.2,2.2-0.4,3.3-0.7c0.4-0.1,0.7-0.3,1-0.6l0,0c0.1-0.1,0.2-0.2,0.4-0.2c0.3,0,0.4,0.2,0.3,0.5
				C207.2,117,207.1,117.1,207,117.1z"/>
			<path class="st12" d="M212.5,104.5c-0.7,0.1-1.4,0.3-2.1,0.4c-0.7,0.1-1.4,0.3-2.1,0.4l1.3-2.6c1.5-0.3,2.9-0.5,4.2-0.8
				L212.5,104.5z"/>
			<path class="st12" d="M211.9,114.6c-0.3,0.4-0.7,0.7-1.2,0.9s-0.9,0.4-1.4,0.5c-0.3,0.1-0.5,0.2-0.8,0.3s-0.5,0.2-0.8,0.3
				c-0.5,0.3-1,0.6-1.3,0.9l0,0c-0.3,0.4-0.5,0.4-0.7,0.1s-0.1-0.6,0.2-1l0,0c0.2-0.7,0.3-1.2,0.5-1.5c0.3-0.5,0.8-0.9,1.4-1.1
				c0.6-0.2,1.6-0.5,2.9-0.8c0.2,0,0.4-0.1,0.7-0.2s0.5-0.2,0.7-0.3c0-0.1-0.1-0.3-0.3-0.8s-0.3-0.7-0.4-0.5
				c-0.2,0.2-0.5,0.4-0.9,0.5s-0.7,0.1-1.1-0.1c-0.2-0.1-0.3-0.3-0.3-0.6c0-0.3,0-0.6,0.2-0.8c0.2-0.4,0.5-0.9,0.7-1.4
				s0.5-0.9,0.8-1.3c0.4-0.5,0.8-0.6,1.2-0.3c0.4,0.3,0.8,0.7,1.1,1.3c0.4,0.8,0.5,1.9,0.2,3.1S212.5,114,211.9,114.6z"/>
			<path class="st12" d="M217.7,118.3c-0.1,0.2-0.3,0.3-0.5,0.4s-0.4,0.3-0.6,0.5c0.1,0.2,0.3,0.3,0.5,0.3c0.2,0.1,0.4,0.1,0.6,0.2
				c0.2,0.1,0.3,0.3,0.3,0.5c0,0.1,0,0.3-0.1,0.4c-0.2,0.4-0.4,0.7-0.8,1c-0.3,0.3-0.7,0.4-1.1,0.5c-0.4,0.1-0.8,0.1-1.2,0.2
				c0.3-0.2,0.7-0.3,1-0.5s0.7-0.3,1-0.5c0.1-0.1,0.2-0.1,0.2-0.2c0,0,0,0,0-0.1c-0.1-0.1-0.3-0.1-0.4-0.2c-0.2-0.1-0.3-0.1-0.4-0.2
				c-0.3-0.1-0.4-0.3-0.4-0.6c0-0.3,0.2-0.6,0.5-1c0.6-0.8,1-1.3,1.3-1.5c0.1-0.1,0.3-0.2,0.6-0.3L217.7,118.3z"/>
			<path class="st12" d="M215.7,107.7l1.6-2.6l0.6,9.3l-1.6,2.6L215.7,107.7z"/>
		</g>
		<g id="Somali_title_3_">
			<rect x="137.4" y="273.7" class="st4" width="141.2" height="23"/>
			<path class="st13" d="M147.1,285c0,0.6-0.1,1.1-0.2,1.6c-0.1,0.5-0.3,0.9-0.6,1.2c-0.3,0.3-0.6,0.6-1,0.8
				c-0.4,0.2-0.9,0.3-1.5,0.3c-0.5,0-0.9-0.1-1.4-0.2s-0.8-0.4-1.2-0.6l0.6-1.3c0.2,0.2,0.5,0.3,0.9,0.5c0.4,0.1,0.7,0.2,1.1,0.2
				c0.3,0,0.5,0,0.7-0.1s0.4-0.2,0.5-0.4c0.2-0.2,0.3-0.4,0.3-0.7c0.1-0.3,0.1-0.7,0.1-1.1v-9.7h1.7L147.1,285L147.1,285z"/>
			<path class="st13" d="M150.5,278.7c0.3-0.1,0.7-0.2,1-0.3c0.4-0.1,0.8-0.1,1.2-0.1c0.9,0,1.6,0.3,2.2,0.8
				c0.6,0.6,0.8,1.4,0.8,2.6v6.6c-0.5,0.1-0.9,0.2-1.4,0.3s-0.9,0.1-1.4,0.1s-0.9-0.1-1.3-0.2c-0.4-0.1-0.7-0.3-1-0.6
				c-0.3-0.3-0.5-0.6-0.7-1s-0.3-0.9-0.3-1.4s0.1-1,0.2-1.4c0.2-0.4,0.4-0.7,0.7-1s0.6-0.5,1-0.6s0.8-0.2,1.2-0.2s0.9,0.1,1.4,0.2
				v-0.9c0-0.7-0.1-1.2-0.4-1.5s-0.7-0.4-1.2-0.4c-0.3,0-0.6,0-0.8,0.1c-0.3,0.1-0.5,0.1-0.8,0.3L150.5,278.7z M151.3,285.6
				c0,0.6,0.2,1,0.5,1.3s0.7,0.4,1.3,0.4c0.3,0,0.7,0,1.1-0.1V284c-0.4-0.1-0.8-0.2-1.1-0.2c-0.2,0-0.5,0-0.7,0.1s-0.4,0.2-0.6,0.3
				c-0.2,0.1-0.3,0.3-0.4,0.5C151.3,285,151.3,285.2,151.3,285.6z"/>
			<path class="st13" d="M159.1,278.7c0.3-0.1,0.7-0.2,1-0.3c0.4-0.1,0.8-0.1,1.2-0.1c0.9,0,1.6,0.3,2.2,0.8
				c0.6,0.6,0.8,1.4,0.8,2.6v6.6c-0.5,0.1-0.9,0.2-1.4,0.3s-0.9,0.1-1.4,0.1s-0.9-0.1-1.3-0.2c-0.4-0.1-0.7-0.3-1-0.6
				c-0.3-0.3-0.5-0.6-0.7-1s-0.3-0.9-0.3-1.4s0.1-1,0.2-1.4c0.2-0.4,0.4-0.7,0.7-1s0.6-0.5,1-0.6s0.8-0.2,1.2-0.2s0.9,0.1,1.4,0.2
				v-0.9c0-0.7-0.1-1.2-0.4-1.5s-0.7-0.4-1.2-0.4c-0.3,0-0.6,0-0.8,0.1c-0.3,0.1-0.5,0.1-0.8,0.3L159.1,278.7z M159.8,285.6
				c0,0.6,0.2,1,0.5,1.3s0.7,0.4,1.3,0.4c0.3,0,0.7,0,1.1-0.1V284c-0.4-0.1-0.8-0.2-1.1-0.2c-0.2,0-0.5,0-0.7,0.1s-0.4,0.2-0.6,0.3
				c-0.2,0.1-0.3,0.3-0.4,0.5C159.9,285,159.8,285.2,159.8,285.6z"/>
			<path class="st13" d="M167.4,278.8c0.4-0.1,0.9-0.3,1.4-0.4s1-0.1,1.4-0.1s0.8,0.1,1.2,0.2s0.7,0.3,1,0.6
				c0.3-0.2,0.7-0.4,1.1-0.5c0.4-0.1,0.8-0.2,1.3-0.2s0.9,0.1,1.2,0.2c0.4,0.1,0.7,0.4,1,0.7c0.3,0.3,0.5,0.7,0.6,1.3s0.2,1.2,0.2,2
				v6h-1.6v-5.9c0-1-0.1-1.7-0.3-2.2s-0.7-0.7-1.3-0.7c-0.2,0-0.5,0-0.7,0.1s-0.5,0.2-0.7,0.4c0.1,0.3,0.2,0.6,0.2,1
				c0.1,0.4,0.1,0.8,0.1,1.2v6h-1.6v-5.9c0-1-0.1-1.7-0.3-2.2s-0.7-0.7-1.3-0.7c-0.3,0-0.7,0.1-1.1,0.2v8.5h-1.6v-9.6H167.4z"/>
			<path class="st13" d="M181.1,278.7c0.3-0.1,0.7-0.2,1-0.3c0.4-0.1,0.8-0.1,1.2-0.1c0.9,0,1.6,0.3,2.2,0.8
				c0.6,0.6,0.8,1.4,0.8,2.6v6.6c-0.5,0.1-0.9,0.2-1.4,0.3s-0.9,0.1-1.4,0.1s-0.9-0.1-1.3-0.2c-0.4-0.1-0.7-0.3-1-0.6
				c-0.3-0.3-0.5-0.6-0.7-1s-0.3-0.9-0.3-1.4s0.1-1,0.2-1.4c0.2-0.4,0.4-0.7,0.7-1s0.6-0.5,1-0.6s0.8-0.2,1.2-0.2s0.9,0.1,1.4,0.2
				v-0.9c0-0.7-0.1-1.2-0.4-1.5s-0.7-0.4-1.2-0.4c-0.3,0-0.6,0-0.8,0.1c-0.3,0.1-0.5,0.1-0.8,0.3L181.1,278.7z M181.9,285.6
				c0,0.6,0.2,1,0.5,1.3s0.7,0.4,1.3,0.4c0.3,0,0.7,0,1.1-0.1V284c-0.4-0.1-0.8-0.2-1.1-0.2c-0.2,0-0.5,0-0.7,0.1s-0.4,0.2-0.6,0.3
				c-0.2,0.1-0.3,0.3-0.4,0.5C182,285,181.9,285.2,181.9,285.6z"/>
			<path class="st13" d="M192.6,288.7c-0.7,0-1.3-0.1-1.7-0.4c-0.5-0.3-0.8-0.6-1.1-1.1s-0.5-1-0.6-1.6s-0.2-1.3-0.2-2.1
				c0-1.6,0.3-2.9,0.9-3.9c0.6-0.9,1.5-1.4,2.7-1.4c0.4,0,0.7,0,1,0.1s0.6,0.2,0.8,0.3l-0.4,1.3c-0.4-0.3-0.8-0.4-1.3-0.4
				c-0.7,0-1.2,0.3-1.5,0.9s-0.5,1.6-0.5,2.9c0,0.5,0,1,0.1,1.5s0.2,0.9,0.3,1.2c0.2,0.3,0.4,0.6,0.6,0.8c0.3,0.2,0.6,0.3,1,0.3
				c0.3,0,0.5,0,0.8-0.1c0.2-0.1,0.4-0.2,0.6-0.3l0.4,1.3c-0.2,0.1-0.5,0.3-0.8,0.4S192.9,288.7,192.6,288.7z"/>
			<path class="st13" d="M196.7,278.7c0.3-0.1,0.7-0.2,1-0.3c0.4-0.1,0.8-0.1,1.2-0.1c0.9,0,1.6,0.3,2.2,0.8s0.8,1.4,0.8,2.6v6.6
				c-0.5,0.1-0.9,0.2-1.4,0.3s-0.9,0.1-1.4,0.1s-0.9-0.1-1.3-0.2c-0.4-0.1-0.7-0.3-1-0.6c-0.3-0.3-0.5-0.6-0.7-1s-0.3-0.9-0.3-1.4
				s0.1-1,0.2-1.4c0.2-0.4,0.4-0.7,0.7-1s0.6-0.5,1-0.6s0.8-0.2,1.2-0.2s0.9,0.1,1.4,0.2v-0.9c0-0.7-0.1-1.2-0.4-1.5
				s-0.7-0.4-1.2-0.4c-0.3,0-0.6,0-0.8,0.1c-0.3,0.1-0.5,0.1-0.8,0.3L196.7,278.7z M197.4,285.6c0,0.6,0.2,1,0.5,1.3
				s0.7,0.4,1.3,0.4c0.3,0,0.7,0,1.1-0.1V284c-0.4-0.1-0.8-0.2-1.1-0.2c-0.2,0-0.5,0-0.7,0.1s-0.4,0.2-0.6,0.3
				c-0.2,0.1-0.3,0.3-0.4,0.5C197.5,285,197.4,285.2,197.4,285.6z"/>
			<path class="st13" d="M209.3,274l1.6-0.3v14.5c-0.4,0.2-0.8,0.3-1.2,0.4s-0.9,0.1-1.4,0.1c-1.4,0-2.4-0.4-3-1.3s-0.9-2.2-0.9-4
				c0-0.8,0.1-1.5,0.2-2.2c0.1-0.6,0.3-1.2,0.6-1.6s0.6-0.8,1.1-1s1-0.4,1.6-0.4c0.3,0,0.5,0,0.8,0.1c0.2,0.1,0.4,0.1,0.6,0.2
				L209.3,274L209.3,274z M209.3,280c-0.4-0.2-0.8-0.3-1.2-0.3c-0.3,0-0.6,0.1-0.8,0.2s-0.4,0.3-0.6,0.6s-0.3,0.7-0.4,1.2
				s-0.1,1.1-0.1,1.8c0,1.4,0.2,2.3,0.5,2.9c0.4,0.6,0.9,0.9,1.6,0.9c0.1,0,0.3,0,0.5,0s0.3-0.1,0.5-0.1V280z"/>
			<path class="st13" d="M218.5,274l1.6-0.3v14.5c-0.4,0.2-0.8,0.3-1.2,0.4s-0.9,0.1-1.4,0.1c-1.4,0-2.4-0.4-3-1.3s-0.9-2.2-0.9-4
				c0-0.8,0.1-1.5,0.2-2.2c0.1-0.6,0.3-1.2,0.6-1.6s0.6-0.8,1.1-1s1-0.4,1.6-0.4c0.3,0,0.5,0,0.8,0.1c0.2,0.1,0.4,0.1,0.6,0.2
				L218.5,274L218.5,274z M218.5,280c-0.4-0.2-0.8-0.3-1.2-0.3c-0.3,0-0.6,0.1-0.8,0.2s-0.4,0.3-0.6,0.6s-0.3,0.7-0.4,1.2
				s-0.1,1.1-0.1,1.8c0,1.4,0.2,2.3,0.5,2.9c0.4,0.6,0.9,0.9,1.6,0.9c0.1,0,0.3,0,0.5,0s0.3-0.1,0.5-0.1V280z"/>
			<path class="st13" d="M223.5,278.7c0.3-0.1,0.7-0.2,1-0.3c0.4-0.1,0.8-0.1,1.2-0.1c0.9,0,1.6,0.3,2.2,0.8s0.8,1.4,0.8,2.6v6.6
				c-0.5,0.1-0.9,0.2-1.4,0.3s-0.9,0.1-1.4,0.1s-0.9-0.1-1.3-0.2c-0.4-0.1-0.7-0.3-1-0.6c-0.3-0.3-0.5-0.6-0.7-1s-0.3-0.9-0.3-1.4
				s0.1-1,0.2-1.4c0.2-0.4,0.4-0.7,0.7-1s0.6-0.5,1-0.6s0.8-0.2,1.2-0.2s0.9,0.1,1.4,0.2v-0.9c0-0.7-0.1-1.2-0.4-1.5
				s-0.7-0.4-1.2-0.4c-0.3,0-0.6,0-0.8,0.1c-0.3,0.1-0.5,0.1-0.8,0.3L223.5,278.7z M224.3,285.6c0,0.6,0.2,1,0.5,1.3
				s0.7,0.4,1.3,0.4c0.3,0,0.7,0,1.1-0.1V284c-0.4-0.1-0.8-0.2-1.1-0.2c-0.2,0-0.5,0-0.7,0.1s-0.4,0.2-0.6,0.3
				c-0.2,0.1-0.3,0.3-0.4,0.5C224.3,285,224.3,285.2,224.3,285.6z"/>
			<path class="st13" d="M235.4,281.9c0-1.2,0.1-2.3,0.3-3.2c0.2-0.9,0.6-1.6,1-2.1c0.4-0.6,0.9-1,1.5-1.2s1.3-0.4,2-0.4
				c0.6,0,1.1,0.1,1.6,0.2c0.5,0.2,0.8,0.3,1.1,0.5l-0.5,1.4c-0.3-0.2-0.6-0.4-1-0.5c-0.3-0.1-0.7-0.2-1.2-0.2
				c-1.1,0-1.9,0.4-2.4,1.3s-0.7,2.2-0.7,4c0,1,0.1,1.8,0.2,2.5c0.1,0.7,0.4,1.2,0.6,1.7s0.6,0.7,1,1c0.4,0.2,0.8,0.3,1.3,0.3
				c0.4,0,0.7,0,1-0.1V282h1.7v6.2c-0.3,0.2-0.8,0.3-1.3,0.4s-1,0.2-1.6,0.2c-0.7,0-1.3-0.1-1.9-0.4c-0.6-0.3-1.1-0.7-1.5-1.3
				c-0.4-0.6-0.8-1.3-1-2.1C235.6,284.1,235.4,283.1,235.4,281.9z"/>
			<path class="st13" d="M252.5,283.5c0,0.8-0.1,1.5-0.2,2.1c-0.1,0.6-0.4,1.2-0.6,1.6c-0.3,0.5-0.6,0.8-1.1,1.1
				c-0.4,0.3-1,0.4-1.5,0.4c-0.6,0-1.1-0.1-1.6-0.4c-0.4-0.3-0.8-0.6-1.1-1.1s-0.5-1-0.6-1.6s-0.2-1.4-0.2-2.1
				c0-0.8,0.1-1.5,0.2-2.1c0.1-0.6,0.4-1.2,0.6-1.7c0.3-0.5,0.6-0.8,1.1-1.1c0.4-0.3,1-0.4,1.6-0.4s1.1,0.1,1.5,0.4s0.8,0.6,1.1,1.1
				s0.5,1,0.6,1.7C252.5,282,252.5,282.7,252.5,283.5z M250.8,283.5c0-0.6,0-1.1-0.1-1.5c-0.1-0.5-0.2-0.9-0.3-1.2
				c-0.1-0.3-0.3-0.6-0.6-0.8c-0.2-0.2-0.5-0.3-0.8-0.3s-0.6,0.1-0.8,0.3s-0.4,0.4-0.6,0.8c-0.1,0.3-0.2,0.7-0.3,1.2s-0.1,1-0.1,1.5
				c0,0.6,0,1.1,0.1,1.5c0.1,0.5,0.2,0.9,0.3,1.2s0.3,0.6,0.6,0.8s0.5,0.3,0.8,0.3s0.6-0.1,0.8-0.3c0.2-0.2,0.4-0.4,0.6-0.8
				c0.1-0.3,0.2-0.7,0.3-1.2C250.8,284.6,250.8,284.1,250.8,283.5z"/>
			<path class="st13" d="M257.8,288.7c-0.9,0-1.6-0.3-2-0.7c-0.4-0.4-0.6-1.1-0.6-2.1V274l1.6-0.3v12.2c0,0.4,0.1,0.8,0.3,1
				c0.2,0.2,0.5,0.3,0.9,0.4L257.8,288.7z"/>
			<path class="st13" d="M262.7,288.7c-0.9,0-1.6-0.3-2-0.7c-0.4-0.4-0.6-1.1-0.6-2.1V274l1.6-0.3v12.2c0,0.4,0.1,0.8,0.3,1
				c0.2,0.2,0.5,0.3,0.9,0.4L262.7,288.7z"/>
			<path class="st13" d="M265.8,276.7c-0.3,0-0.5-0.1-0.8-0.3s-0.3-0.5-0.3-0.8s0.1-0.6,0.3-0.8s0.5-0.3,0.8-0.3s0.5,0.1,0.8,0.3
				s0.3,0.5,0.3,0.8s-0.1,0.6-0.3,0.8S266.1,276.7,265.8,276.7z M266.7,288.5H265v-10h1.6v10H266.7z"/>
			<path class="st13" d="M271.3,287.3c0.5,0,0.8-0.1,1.1-0.4s0.4-0.6,0.4-1.1c0-0.3-0.1-0.5-0.2-0.7s-0.2-0.4-0.4-0.5
				c-0.2-0.2-0.4-0.3-0.6-0.4s-0.4-0.2-0.6-0.4c-0.2-0.1-0.4-0.3-0.6-0.4c-0.2-0.2-0.4-0.4-0.5-0.6c-0.2-0.2-0.3-0.5-0.4-0.8
				s-0.1-0.6-0.1-1c0-0.8,0.3-1.5,0.8-2s1.2-0.8,2.1-0.8c0.4,0,0.7,0,1,0.1s0.6,0.2,0.8,0.3l-0.4,1.3c-0.2-0.1-0.5-0.2-0.7-0.3
				s-0.5-0.1-0.7-0.1c-0.4,0-0.7,0.1-1,0.4c-0.2,0.2-0.4,0.6-0.4,1c0,0.3,0,0.5,0.1,0.7s0.2,0.3,0.4,0.5s0.3,0.3,0.5,0.4
				s0.4,0.2,0.6,0.4c0.2,0.1,0.5,0.3,0.7,0.5s0.4,0.4,0.6,0.6s0.3,0.5,0.4,0.8s0.2,0.7,0.2,1.1c0,0.9-0.3,1.6-0.8,2.1
				s-1.3,0.8-2.3,0.8c-0.5,0-1-0.1-1.4-0.2s-0.7-0.3-0.9-0.4l0.3-1.3c0.2,0.1,0.4,0.2,0.8,0.3C270.5,287.3,270.9,287.3,271.3,287.3z
				"/>
		</g>
	</g>
	<g id="Book">
		<g id="Book_Holder">
			
				<linearGradient id="SVGID_1_" gradientUnits="userSpaceOnUse" x1="234.4404" y1="156.5584" x2="277.6599" y2="231.4168" gradientTransform="matrix(1 0 0 -1 0 418)">
				<stop  offset="0.4972" style="stop-color:#70AA43"/>
				<stop  offset="1" style="stop-color:#183F1D"/>
			</linearGradient>
			<path class="st14" d="M220.5,244.4h23.3h33.1h0.5c-0.5-5.5-1-11.1-1.5-16.6c-0.5-5.8-1-11.6-1.4-16.3l-2.7-28.3h-3.9l2.2,26.2
				c0.4,4.5,0.8,9.6,1.2,14.7c0.4,5.2,0.8,10.4,1.3,15.6l0,0c0,0,0,0,0,0.1c0,0.4-0.3,0.7-0.7,0.7h0.1h-10.5h-12.3h-22.7
				c-6.4,0-10.4,1.2-13,2.9c-1.8,1.1-2.9,2.4-3.9,3.7c0.1,0,0.3-0.1,0.4-0.1c1.4-0.5,2.9-1,4.3-1.5c0.1,0,0.2-0.1,0.4-0.1
				C216.7,244.8,218.7,244.4,220.5,244.4L220.5,244.4z"/>
			
				<linearGradient id="SVGID_2_" gradientUnits="userSpaceOnUse" x1="153.0722" y1="164.9565" x2="182.0659" y2="215.1751" gradientTransform="matrix(1 0 0 -1 0 418)">
				<stop  offset="0.4972" style="stop-color:#70AA43"/>
				<stop  offset="1" style="stop-color:#183F1D"/>
			</linearGradient>
			<path class="st15" d="M205.9,247.1c-0.9-1.3-2.1-2.6-3.9-3.7c-2.6-1.7-6.6-2.9-13-2.9h-45.5c-0.4,0-0.7-0.3-0.7-0.7v-0.1
				c0.5-5.1,0.9-10.4,1.4-15.6c0.5-5.1,0.9-10.1,1.3-14.7l2.4-26.2H144l-2.8,28.3c-0.5,5.1-1,10.7-1.5,16.3
				c-0.5,5.7-1.1,11.4-1.6,16.7h0.3h16.1h0.5h16.7H195c1.9,0,4,0.4,6,1c1.5,0.4,3.1,1,4.5,1.5C205.7,247,205.8,247.1,205.9,247.1
				L205.9,247.1z"/>
			
				<linearGradient id="SVGID_3_" gradientUnits="userSpaceOnUse" x1="235.4957" y1="154.6223" x2="253.5828" y2="185.95" gradientTransform="matrix(1 0 0 -1 0 418)">
				<stop  offset="0" style="stop-color:#F47D20"/>
				<stop  offset="0.5028" style="stop-color:#ED2024"/>
			</linearGradient>
			<path class="st16" d="M223.4,251.5h50.9c0.2,0,0.3,0,0.4,0c0.9-0.1,1.7-0.5,2.3-1.1c0.5-0.5,0.9-1.3,0.9-2.1c0-0.1,0-0.2,0-0.3
				l-0.2-2.1H277h-56.5c-3.3,0-7.1,1.3-10.6,2.7c0.1,0,0.2,0.1,0.2,0.1l6.2,2.2c0.9,0.3,1.8,0.7,2.8,1
				C220.5,251.7,222,251.5,223.4,251.5L223.4,251.5z"/>
			
				<linearGradient id="SVGID_4_" gradientUnits="userSpaceOnUse" x1="183.725" y1="141.4088" x2="205.8484" y2="179.7275" gradientTransform="matrix(1 0 0 -1 0 418)">
				<stop  offset="0.4972" style="stop-color:#ED2024"/>
				<stop  offset="1" style="stop-color:#F47D20"/>
			</linearGradient>
			<path class="st17" d="M155.1,245.9h-0.5h-16.1H138l-0.2,2.1c0,0.1,0,0.2,0,0.3c0,0.8,0.3,1.5,0.9,2.1c0.5,0.6,1.3,1,2.2,1.1
				c0.1,0,0.3,0,0.4,0h25.4l0,0h8.5c5.6,0,11.3,0,17,0c1.4,0,2.8,0.1,4.3,0.4c0.5,0.1,1,0.2,1.4,0.3s0.9,0.2,1.3,0.3
				c0.1,0,0.3,0.1,0.4,0.1c2.5,0.6,4.9,1.5,7.2,2.3l0.9,0.3l1.1,0.4l1.1,0.4l3.4,1.2c7.9,2.9,15.9,5.7,24,8.6h16.1l-20.2-7.2
				c-4.8-1.7-9.6-3.4-14.3-5.1c-0.4-0.1-0.9-0.3-1.3-0.5c-0.4-0.1-0.9-0.3-1.3-0.5c-0.2-0.1-0.3-0.1-0.5-0.2l-6.2-2.2
				c-0.6-0.2-1.2-0.4-1.8-0.7c-0.3-0.1-0.6-0.2-0.9-0.3c-0.1,0-0.1-0.1-0.2-0.1h-0.1l0,0c0,0,0,0-0.1,0c-0.3-0.1-0.6-0.2-0.9-0.3
				c-1.6-0.6-3.3-1.2-5-1.7c-1-0.3-2-0.5-2.9-0.7s-1.8-0.3-2.7-0.3h-39.9V245.9z"/>
			
				<linearGradient id="SVGID_5_" gradientUnits="userSpaceOnUse" x1="176.2309" y1="144.0265" x2="191.345" y2="170.2049" gradientTransform="matrix(1 0 0 -1 0 418)">
				<stop  offset="0.4972" style="stop-color:#ED2024"/>
				<stop  offset="1" style="stop-color:#F47D20"/>
			</linearGradient>
			<path class="st18" d="M182.2,258.6l-20.2,7.2h16.1c8-2.9,16-5.7,23.9-8.5l3.5-1.2c-2-0.7-4.1-1.4-6.2-1.9
				c-0.9-0.2-1.8-0.4-2.7-0.6C191.8,255.1,187,256.9,182.2,258.6L182.2,258.6z"/>
		</g>
		<g id="Book_1_">
			<path class="st19" d="M152.5,180.2h-2.8l-0.2,2.2l-2.5,27c-0.4,4.7-0.9,9.7-1.3,14.7c-0.4,5-0.9,10-1.3,14.9H189
				c6.7,0,10.9,1.3,13.8,3.1c2.4,1.5,3.8,3.4,4.9,5.1c1.1-1.7,2.5-3.5,5-5.1c2.9-1.8,7.1-3.1,13.8-3.1h35h9.7
				c-0.4-4.8-0.8-9.8-1.2-14.8c-0.4-5-0.8-9.9-1.2-14.7l-2.3-27l-0.2-2.3h-2.8l-0.1-0.7v-0.7l-0.2-2.1c0-0.4-0.4-0.7-0.8-0.7h-37.3
				c-4.3,0-8.1,0.5-11,1.5c-2.7,0.9-4.8,2.1-6.2,3.5c-1.3-1.4-3.4-2.6-6.1-3.5c-2.9-0.9-6.7-1.5-11-1.5h-37.3
				c-0.4,0-0.7,0.3-0.7,0.7l-0.2,2.1l-0.1,0.8L152.5,180.2z"/>
			
				<linearGradient id="SVGID_6_" gradientUnits="userSpaceOnUse" x1="178.35" y1="178.4" x2="178.35" y2="240.6" gradientTransform="matrix(1 0 0 -1 0 418)">
				<stop  offset="0" style="stop-color:#FEF095"/>
				<stop  offset="5.905807e-02" style="stop-color:#FEF2A5"/>
				<stop  offset="0.1756" style="stop-color:#FEF5C0"/>
				<stop  offset="0.3003" style="stop-color:#FFF9D6"/>
				<stop  offset="0.4341" style="stop-color:#FFFBE7"/>
				<stop  offset="0.5811" style="stop-color:#FFFDF3"/>
				<stop  offset="0.7515" style="stop-color:#FFFEFB"/>
				<stop  offset="1" style="stop-color:#FFFFFF"/>
			</linearGradient>
			<path class="st20" d="M207.1,239.6c-1.1-1.2-2.7-2.3-4.8-3.1c-3-1.2-7.1-1.9-13.1-1.9h-20.3c-5.4,0-10.9,0-19.5,0l4.7-54.3
				l0.1-0.7l0.1-0.7l0.1-1.5H191c4.2,0,7.7,0.5,10.5,1.4s4.8,2.1,5.8,3.5v6.3v0.7v0.8L207.1,239.6L207.1,239.6z"/>
			<path class="st21" d="M207.3,181.9c0-0.1,0-0.1,0.1-0.2l0.1-0.1l-0.1,0.1C207.3,181.7,207.3,181.8,207.3,181.9L207.3,181.9z"/>
			
				<linearGradient id="SVGID_7_" gradientUnits="userSpaceOnUse" x1="237.45" y1="178.4" x2="237.45" y2="240.6" gradientTransform="matrix(1 0 0 -1 0 418)">
				<stop  offset="0" style="stop-color:#FEF095"/>
				<stop  offset="5.905807e-02" style="stop-color:#FEF2A5"/>
				<stop  offset="0.1756" style="stop-color:#FEF5C0"/>
				<stop  offset="0.3003" style="stop-color:#FFF9D6"/>
				<stop  offset="0.4341" style="stop-color:#FFFBE7"/>
				<stop  offset="0.5811" style="stop-color:#FFFDF3"/>
				<stop  offset="0.7515" style="stop-color:#FFFEFB"/>
				<stop  offset="1" style="stop-color:#FFFFFF"/>
			</linearGradient>
			<path class="st22" d="M208.7,188.6v-6.3c1.1-1.4,3.1-2.6,5.9-3.5c2.8-0.9,6.4-1.4,10.6-1.4h36.6l0.1,1.5l0.1,0.7l0.1,0.8
				l1.9,24.4l2.4,29.8h-39.9c-6,0-10.2,0.7-13.2,1.9c-2.1,0.8-3.6,1.9-4.8,3.1l0.2-49.5v-0.8V188.6z"/>
		</g>
		<path id="Left_text" class="st23" d="M168.1,196.4c0-0.4,0.1-0.7,0.3-0.9c-0.1,0-0.3,0-0.7,0l0,0c-0.1,0-0.2,0-0.3,0l0,0
			c-0.3,0-0.5,0-0.7,0v0.1c0,0.1-0.1,0.4-0.2,0.7c-1,2-1.5,3-1.6,3.2c0-0.2-0.4-1.2-1.2-3.1l0,0c-0.1-0.3-0.2-0.6-0.2-0.8v-0.1
			c-0.1,0-0.3,0-0.6,0l0,0c-0.1,0-0.2,0-0.3,0l0,0c-0.3,0-0.5,0-0.7,0c0.1,0.2,0.2,0.5,0.2,0.9c-0.1,1.8-0.3,3.6-0.4,5.4
			c0,0.4-0.1,0.7-0.3,0.9c0.1,0,0.4,0,0.7,0c0.1,0,0.1,0,0.2,0c0.4,0,0.6,0,0.7,0c-0.1-0.2-0.2-0.5-0.2-0.8c0.1-1.5,0.2-2.5,0.3-3.1
			c0-0.7,0.1-1.1,0-1.3c0,0.1,0.1,0.1,0.1,0.2c0,0.1,0.1,0.2,0.2,0.4c0.1,0.2,0.1,0.4,0.3,0.7c0.1,0.2,0.3,0.6,0.5,1.1
			s0.5,1.1,0.7,1.8c1.4-2.6,2.1-4,2.2-4.1c0,0.4-0.1,1.3-0.2,3c0,0.5-0.1,0.9-0.1,1.3c0,0.4-0.1,0.7-0.3,0.9c0.1,0,0.4,0,0.7,0
			c0.1,0,0.2,0,0.3,0c0.3,0,0.6,0,0.7,0c-0.1-0.2-0.2-0.5-0.2-0.9C167.8,199.9,167.9,198.1,168.1,196.4L168.1,196.4z M173.2,196.3
			c0.2-0.4,0.4-0.7,0.7-0.8c-0.6,0-1.2,0-1.9,0c0.1,0.1,0.2,0.2,0.1,0.4c0,0.1,0,0.3-0.1,0.4c-0.3,0.7-0.6,1.5-0.9,2.2
			c-0.3-0.7-0.5-1.5-0.8-2.2c0-0.1,0-0.3,0-0.4c0-0.2,0.1-0.3,0.2-0.4c-0.7,0-1.3,0-2,0c0.2,0.1,0.4,0.4,0.5,0.7
			c0.4,1.1,0.8,2.3,1.2,3.4c0,0.7-0.1,1.5-0.1,2.2c0,0.4-0.1,0.7-0.3,0.9c0.1,0,0.4,0,0.7,0c0.1,0,0.2,0,0.4,0c0.3,0,0.6,0,0.7,0
			c-0.1-0.2-0.2-0.5-0.2-0.9c0-0.7,0.1-1.4,0.1-2.2C172.1,198.5,172.7,197.4,173.2,196.3L173.2,196.3z M177.7,201.8
			c-0.3,0-0.5,0-0.8,0c0.1-1.8,0.2-3.6,0.3-5.5c0-0.4,0.1-0.7,0.3-0.9c-0.2,0-0.5,0-0.8,0l0,0h-0.1l0,0c-0.3,0-0.6,0-0.8,0
			c0.1,0.2,0.2,0.5,0.2,0.9c-0.1,1.8-0.2,3.6-0.3,5.4c0,0.4-0.1,0.7-0.3,0.9c0.1,0,0.4,0,0.7,0c1,0,2,0,2.9,0c0.1-0.5,0.1-1,0.2-1.5
			c-0.1,0.2-0.3,0.4-0.6,0.5C178.4,201.7,178.1,201.8,177.7,201.8L177.7,201.8z M182.1,202.8c-1.7,0-2.5-1.2-2.4-3.7s1-3.7,2.7-3.7
			s2.5,1.2,2.4,3.7C184.7,201.5,183.8,202.8,182.1,202.8L182.1,202.8z M182.4,196.2c-0.3,0-0.5,0.1-0.7,0.3s-0.3,0.4-0.4,0.8
			s-0.2,0.6-0.2,0.9c-0.1,0.3-0.1,0.6-0.1,0.9c0,0.3,0,0.7,0,1s0.1,0.6,0.1,0.9c0.1,0.3,0.2,0.6,0.4,0.8s0.4,0.3,0.7,0.3
			c0.8,0,1.3-1,1.4-2.9C183.6,197.1,183.3,196.2,182.4,196.2L182.4,196.2z M188.5,199.2c0.4-0.1,0.8-0.3,1.2-0.7
			c0.3-0.3,0.5-0.8,0.5-1.2c0-0.5-0.2-1-0.6-1.3c-0.4-0.4-1.1-0.5-2-0.5c-0.4,0-0.7,0-1,0l0,0c-0.3,0-0.6,0-0.8,0
			c0.2,0.2,0.2,0.5,0.2,0.9c-0.1,1.8-0.1,3.6-0.2,5.4c0,0.4-0.1,0.7-0.3,0.9c0.1,0,0.4,0,0.7,0c0.1,0,0.2,0,0.3,0c0.3,0,0.6,0,0.7,0
			c-0.1-0.2-0.2-0.5-0.2-0.9c0-0.8,0.1-1.6,0.1-2.4c0.3,0,0.6,0.2,0.8,0.5s0.3,0.6,0.4,0.9c0.1,0.3,0.2,0.7,0.3,1
			c0.1,0.4,0.3,0.7,0.4,0.8c0.5,0,1.1,0,1.6,0c-0.2-0.1-0.4-0.3-0.5-0.6s-0.3-0.7-0.4-1c-0.1-0.4-0.3-0.7-0.5-1.1
			C189,199.6,188.7,199.4,188.5,199.2L188.5,199.2z M187.5,198.7c-0.1,0-0.3,0-0.4,0c0-0.8,0.1-1.6,0.1-2.4c0,0,0.1,0,0.2,0
			c0.1,0,0.2,0,0.3,0c0.4,0,0.8,0.1,1,0.4c0.2,0.2,0.3,0.5,0.3,0.8s-0.1,0.6-0.4,0.9C188.2,198.5,187.9,198.7,187.5,198.7
			L187.5,198.7z M193.1,195.5c-0.3,0-0.6,0-0.9,0l0,0c-0.3,0-0.6,0-0.8,0c0.2,0.2,0.3,0.5,0.2,0.9c0,1.8-0.1,3.6-0.1,5.4
			c0,0.4-0.1,0.7-0.3,0.9c0.1,0,0.3,0,0.7,0l0,0c0.4,0,0.8,0,1.2,0c0.9,0,1.7-0.3,2.2-1c0.5-0.6,0.8-1.5,0.8-2.7
			C196.1,196.6,195.1,195.5,193.1,195.5L193.1,195.5z M193.1,201.9c-0.1,0-0.3,0-0.4,0c0.1-1.9,0.1-3.8,0.1-5.6c0.1,0,0.3,0,0.4,0
			c1.1,0,1.7,1,1.7,2.8C194.8,200.9,194.2,201.9,193.1,201.9L193.1,201.9z M162.3,211.2c0-0.4,0.1-0.7,0.3-0.9c-0.2,0-0.4,0-0.8,0
			l0,0c-0.1,0-0.1,0-0.1,0l0,0c-0.3,0-0.6,0-0.8,0c0.2,0.2,0.2,0.5,0.2,0.9c-0.1,1.9-0.3,3.8-0.4,5.7c0,0.4-0.1,0.7-0.4,1
			c0.1,0,0.4,0,0.7,0c0.1,0,0.2,0,0.3,0c0.3,0,0.6,0,0.7,0c-0.1-0.2-0.2-0.5-0.2-1C162.1,214.9,162.2,213.1,162.3,211.2L162.3,211.2
			z M168.2,211.2c0-0.4,0.1-0.7,0.3-0.9c-0.1,0-0.4,0-0.7,0l0,0c-0.1,0-0.1,0-0.2,0l0,0c-0.3,0-0.6,0-0.7,0c0.1,0.2,0.2,0.5,0.2,0.9
			l0,0c0,0.6-0.1,1.4-0.1,2.5c-0.1,1.1-0.1,1.7-0.1,1.7c0-0.3-0.5-1.7-1.5-4.3c-0.1-0.4-0.2-0.6-0.2-0.8v-0.1c-0.1,0-0.3,0-0.7,0
			l0,0c-0.1,0-0.2,0-0.3,0l0,0c-0.4,0-0.6,0-0.7,0c0.1,0.2,0.2,0.5,0.2,0.9c-0.1,1.9-0.3,3.7-0.4,5.6c0,0.4-0.1,0.7-0.3,1
			c0.1,0,0.4,0,0.7,0c0.1,0,0.1,0,0.2,0c0.3,0,0.5,0,0.7,0c-0.1-0.2-0.2-0.5-0.2-1c0.2-2.9,0.3-4.4,0.3-4.5c0,0.1,0.5,1.6,1.6,4.5
			l0,0c0.1,0.3,0.1,0.5,0.1,0.8c0,0.1,0,0.1,0,0.2c0.1,0,0.4,0,0.7,0l0,0c0.1,0,0.2,0,0.4,0l0,0c0.3,0,0.6,0,0.6,0
			c-0.1-0.1-0.2-0.5-0.1-1C168,214.9,168.1,213.1,168.2,211.2L168.2,211.2z M171.7,217.9c0.4,0,0.8-0.1,1.3-0.3c0-0.5,0-1,0.1-1.5
			c-0.3,0.5-0.8,0.8-1.3,0.8s-0.9-0.3-1.2-0.8s-0.4-1.2-0.4-2.2c0-0.9,0.3-1.6,0.6-2.2c0.3-0.5,0.8-0.8,1.3-0.8s0.9,0.3,1.2,0.8
			c0-0.5,0.1-1,0.1-1.4c-0.3-0.1-0.7-0.2-1-0.2c-1,0-1.8,0.4-2.4,1c-0.6,0.7-0.9,1.6-1,2.8s0.1,2.1,0.6,2.8
			C170.1,217.5,170.8,217.9,171.7,217.9L171.7,217.9z M177.1,214.2c0.4-0.1,0.8-0.3,1.2-0.7c0.3-0.4,0.5-0.8,0.5-1.3s-0.2-1-0.6-1.4
			c-0.4-0.4-1.1-0.5-2-0.5c-0.4,0-0.7,0-1,0l0,0c-0.3,0-0.6,0-0.8,0c0.2,0.2,0.2,0.5,0.2,0.9c-0.1,1.9-0.2,3.8-0.3,5.7
			c0,0.4-0.1,0.7-0.3,1c0.1,0,0.4,0,0.7,0c0.1,0,0.2,0,0.4,0c0.3,0,0.6,0,0.7,0c-0.1-0.2-0.2-0.5-0.2-1c0-0.8,0.1-1.6,0.1-2.5
			c0.3,0,0.6,0.2,0.8,0.5s0.4,0.6,0.4,1c0.1,0.3,0.2,0.7,0.3,1.1c0.1,0.4,0.3,0.7,0.4,0.9c0.5,0,1.1,0,1.6,0
			c-0.2-0.1-0.3-0.3-0.5-0.6c-0.1-0.3-0.3-0.7-0.4-1.1c-0.1-0.4-0.3-0.8-0.5-1.1S177.3,214.3,177.1,214.2L177.1,214.2z M176,213.6
			c-0.1,0-0.3,0-0.4,0c0-0.8,0.1-1.7,0.1-2.5c0,0,0.1,0,0.2,0c0.1,0,0.2,0,0.3,0c0.5,0,0.8,0.1,1,0.4c0.2,0.3,0.4,0.5,0.3,0.9
			c0,0.4-0.2,0.7-0.5,0.9C176.8,213.5,176.5,213.6,176,213.6L176,213.6z M182.1,216.9c-0.3,0-0.5,0-0.8,0c0.1-1.1,0.1-2.1,0.1-3.1
			c0.5,0,0.9,0,1,0c0.3,0,0.6,0.1,0.8,0.2c0-0.1,0-0.3,0-0.6s0-0.5,0.1-0.6c-0.2,0.1-0.5,0.2-0.8,0.2c-0.2,0-0.5,0-1.1,0
			c0-0.6,0.1-1.2,0.1-1.8c0.4,0,0.9,0,1.3,0s0.8,0.1,0.9,0.4c0-0.4,0-0.8,0-1.3c-1.2,0-2.3,0-3.5,0h-0.1c-0.1,0-0.1,0-0.1,0
			c0.2,0.2,0.2,0.5,0.2,0.9c-0.1,1.9-0.2,3.8-0.3,5.7c0,0.4-0.1,0.7-0.3,1c0.1,0,0.4,0,0.7,0c1,0,2,0,3,0c0.1-0.5,0.1-1,0.2-1.5
			c-0.1,0.2-0.3,0.4-0.6,0.5C182.8,216.8,182.5,216.9,182.1,216.9L182.1,216.9z M189,217c-0.5-2-0.9-4-1.3-5.9c-0.1-0.3,0-0.4,0-0.5
			c0-0.2,0-0.3,0.1-0.4c-0.2,0-0.4,0-0.8,0l0,0h-0.1l0,0c-0.3,0-0.6,0-0.8,0c0.1,0.1,0.1,0.2,0.1,0.4c0,0.1,0,0.3-0.1,0.5
			c-0.5,1.9-1.1,3.8-1.7,5.7c-0.1,0.4-0.3,0.7-0.5,0.9c0.1,0,0.3,0,0.4,0c0.2,0,0.4,0,0.5,0s0.3,0,0.4,0c0.2,0,0.4,0,0.5,0
			c-0.1-0.1-0.2-0.2-0.2-0.4c0-0.1,0-0.2,0-0.3c0.1-0.3,0.1-0.6,0.2-0.8c0,0,0,0,0-0.1c0.6,0,1.2,0,1.8,0c0,0,0,0,0,0.1
			c0,0.3,0.1,0.6,0.1,0.8c0,0.1,0,0.3,0,0.3c0,0.2-0.1,0.3-0.2,0.4c0.1,0,0.3,0,0.5,0s0.4,0,0.5,0s0.3,0,0.5,0s0.4,0,0.4,0
			C189.3,217.6,189.1,217.4,189,217L189,217z M187.4,215.2c-0.5,0-0.9,0-1.4,0c0.5-2,0.8-3,0.8-3.1
			C186.8,212.1,187,213.2,187.4,215.2L187.4,215.2z M189.9,216c0,0.5,0,1,0,1.5c0.5,0.2,1,0.4,1.7,0.4s1.3-0.2,1.7-0.5
			c0.5-0.3,0.7-0.8,0.7-1.4c0-0.2,0-0.5-0.1-0.7s-0.2-0.4-0.4-0.6c-0.2-0.2-0.3-0.4-0.4-0.5c-0.1-0.1-0.3-0.3-0.5-0.5
			c-0.3-0.2-0.4-0.3-0.5-0.4c-0.6-0.5-0.9-1-0.9-1.5c0-0.3,0.1-0.5,0.3-0.6s0.4-0.2,0.7-0.2c0.6,0,1.2,0.3,1.6,0.9c0-0.5,0-1,0-1.5
			c-0.5-0.3-1-0.4-1.6-0.4s-1.2,0.1-1.6,0.5c-0.5,0.3-0.7,0.8-0.7,1.4c0,0.4,0.1,0.8,0.3,1.2c0.2,0.3,0.6,0.7,1,1
			c0,0,0.2,0.1,0.3,0.2s0.3,0.2,0.3,0.3s0.1,0.1,0.3,0.2c0.1,0.1,0.2,0.2,0.3,0.3c0.1,0,0.1,0.1,0.2,0.2c0.1,0.1,0.1,0.2,0.1,0.3
			s0,0.2,0,0.3c0,0.3-0.1,0.5-0.3,0.7s-0.5,0.3-0.8,0.3s-0.6-0.1-0.9-0.3C190.3,216.5,190.1,216.3,189.9,216L189.9,216z
			 M196.9,216.9c-0.3,0-0.5,0-0.8,0c0-1.1,0-2.1,0.1-3.1c0.5,0,0.9,0,1.1,0c0.3,0,0.5,0.1,0.8,0.2c0-0.1,0-0.3,0-0.6s0-0.5,0-0.6
			c-0.2,0.1-0.4,0.2-0.7,0.2c-0.2,0-0.6,0-1.1,0c0-0.6,0-1.2,0-1.8c0.4,0,0.9,0,1.3,0c0.5,0,0.8,0.1,0.9,0.4c0-0.4,0-0.9,0-1.3
			c-1.1,0-2.3,0-3.4,0H195c-0.1,0-0.1,0-0.1,0c0.1,0.2,0.3,0.5,0.2,0.9c0,1.9-0.1,3.8-0.1,5.7c0,0.4-0.1,0.7-0.3,1
			c0.1,0,0.4,0,0.7,0c1,0,2,0,3,0c0-0.5,0.1-1,0.2-1.5c-0.1,0.2-0.4,0.4-0.6,0.5C197.6,216.8,197.3,216.9,196.9,216.9L196.9,216.9z"
			/>
		<path id="Right_text" class="st23" d="M217.5,196.3c0-0.4,0.1-0.7,0.2-0.9c-0.1,0-0.3,0-0.7,0l0,0c-0.1,0-0.2,0-0.3,0l0,0
			c-0.3,0-0.5,0-0.6,0v0.1c0,0.1,0,0.4-0.2,0.6c-0.9,2-1.3,3.1-1.3,3.3c-0.1-0.2-0.5-1.2-1.4-3.1l0,0c-0.2-0.3-0.3-0.6-0.3-0.8v-0.1
			c-0.1,0-0.3,0-0.6,0l0,0c-0.1,0-0.2,0-0.3,0l0,0c-0.3,0-0.6,0-0.7,0c0.2,0.2,0.3,0.5,0.3,0.9c0,1.8,0,3.6,0,5.4
			c0,0.4-0.1,0.7-0.3,0.9c0.1,0,0.4,0,0.7,0c0.1,0,0.1,0,0.2,0c0.3,0,0.6,0,0.7,0c-0.2-0.2-0.3-0.5-0.3-0.8c0-1.5,0-2.5,0-3.1
			c0-0.7,0-1.2,0-1.3c0,0.1,0,0.1,0.1,0.2c0,0.1,0.1,0.2,0.2,0.4c0.1,0.2,0.2,0.4,0.3,0.7c0.1,0.2,0.3,0.6,0.5,1.2
			c0.3,0.5,0.5,1.1,0.8,1.7c1.2-2.6,1.8-4,1.8-4.1c0,0.3,0,1.3,0,3c0,0.4,0,0.9,0,1.3c0,0.4-0.1,0.7-0.2,0.9c0.1,0,0.4,0,0.7,0
			c0.1,0,0.2,0,0.3,0c0.3,0,0.6,0,0.7,0c-0.1-0.2-0.2-0.5-0.3-0.9C217.6,199.9,217.5,198.1,217.5,196.3L217.5,196.3z M220.8,201.7
			c-0.3,0-0.5,0-0.8,0c0-1,0-2-0.1-3c0.5,0,0.9,0,1,0c0.3,0,0.6,0.1,0.8,0.2c0-0.1,0-0.3,0-0.6s0-0.5,0-0.6
			c-0.2,0.1-0.4,0.2-0.7,0.2c-0.2,0-0.5,0-1.1,0c0-0.6,0-1.1,0-1.7c0.4,0,0.9,0,1.3,0c0.4,0,0.7,0.1,0.9,0.4c0-0.4,0-0.8,0-1.2
			c-1.1,0-2.3,0-3.4,0c-0.1,0-0.1,0-0.1,0c-0.1,0-0.1,0-0.1,0c0.2,0.2,0.3,0.5,0.3,0.9c0,1.8,0.1,3.6,0.1,5.4c0,0.4-0.1,0.7-0.3,0.9
			c0.1,0,0.4,0,0.7,0c1,0,1.9,0,2.9,0c0-0.5,0.1-1,0.1-1.5c-0.1,0.2-0.3,0.4-0.6,0.5C221.5,201.7,221.2,201.7,220.8,201.7
			L220.8,201.7z M226,196.3c0-0.4,0.1-0.7,0.2-0.9c-0.2,0-0.4,0-0.8,0l0,0c-0.1,0-0.1,0-0.1,0l0,0c-0.3,0-0.6,0-0.8,0
			c0.2,0.2,0.3,0.5,0.3,0.9c0,1.8,0.1,3.6,0.1,5.4c0,0.4-0.1,0.7-0.2,0.9c0.1,0,0.4,0,0.7,0c0.1,0,0.2,0,0.4,0c0.3,0,0.6,0,0.7,0
			c-0.1-0.2-0.3-0.5-0.3-0.9C226.1,199.9,226.1,198.1,226,196.3L226,196.3z M231.8,196.3c0-0.4,0.1-0.7,0.2-0.9c-0.1,0-0.3,0-0.7,0
			l0,0c-0.1,0-0.1,0-0.2,0l0,0c-0.3,0-0.5,0-0.7,0c0.2,0.2,0.3,0.5,0.3,0.9l0,0c0,0.5,0,1.4,0.1,2.4c0,1.1,0,1.6,0,1.6
			c-0.1-0.2-0.7-1.6-1.9-4.1c-0.2-0.4-0.3-0.6-0.3-0.8v-0.1c-0.1,0-0.3,0-0.6,0l0,0c-0.1,0-0.2,0-0.3,0l0,0c-0.3,0-0.6,0-0.7,0
			c0.2,0.2,0.3,0.5,0.3,0.9c0.1,1.8,0.1,3.6,0.1,5.4c0,0.4-0.1,0.7-0.2,0.9c0.1,0,0.4,0,0.7,0c0.1,0,0.2,0,0.2,0c0.3,0,0.6,0,0.7,0
			c-0.1-0.2-0.3-0.5-0.3-0.9c-0.1-2.7-0.1-4.2-0.1-4.3c0,0.1,0.7,1.6,1.9,4.3l0,0c0.1,0.3,0.2,0.5,0.2,0.7c0,0.1,0,0.1,0,0.2
			c0.1,0,0.3,0,0.6,0l0,0c0.1,0,0.2,0,0.3,0l0,0c0.3,0,0.5,0,0.6,0c-0.1-0.1-0.2-0.4-0.2-0.9C231.9,199.9,231.8,198.1,231.8,196.3
			L231.8,196.3z M214,213.3c0.6-0.8,1.2-1.6,1.8-2.3c0.3-0.4,0.6-0.7,0.7-0.8c-0.6,0-1.3,0-1.9,0c0.1,0.1,0.1,0.2,0.1,0.3
			c0,0.2-0.1,0.4-0.3,0.8l0,0c-0.5,0.8-1.1,1.5-1.6,2.3c0-0.8,0-1.6,0-2.4c0-0.4,0.1-0.7,0.3-0.9c-0.2,0-0.5,0-0.8,0l0,0
			c-0.1,0-0.1,0-0.1,0l0,0c-0.3,0-0.6,0-0.8,0c0.2,0.2,0.3,0.5,0.3,0.9c0,1.9,0,3.8,0,5.6c0,0.4-0.1,0.7-0.3,1c0.1,0,0.4,0,0.7,0
			c0.1,0,0.2,0,0.4,0c0.3,0,0.6,0,0.7,0c-0.1-0.2-0.2-0.5-0.2-1c0-1.1,0-2.1,0-3.2c0.5,0.2,0.8,0.6,1.1,1.2c0.3,0.5,0.5,1.1,0.6,1.7
			c0.2,0.6,0.3,1,0.5,1.2c0.5,0,1.1,0,1.7,0c-0.2,0-0.4-0.3-0.6-0.7c-0.2-0.4-0.4-0.8-0.5-1.3s-0.4-1-0.6-1.4S214.4,213.5,214,213.3
			L214,213.3z M222,211.1c0-0.4,0.1-0.7,0.2-1c-0.1,0-0.3,0-0.7,0l0,0c-0.1,0-0.1,0-0.2,0l0,0c-0.3,0-0.6,0-0.7,0
			c0.1,0.2,0.3,0.5,0.3,1l0,0c0,0.5,0,1.4,0.1,2.5c0,1.1,0,1.7,0,1.7c-0.1-0.2-0.7-1.7-1.9-4.2c-0.2-0.4-0.3-0.7-0.3-0.8v-0.1
			c-0.1,0-0.3,0-0.7,0l0,0c-0.1,0-0.2,0-0.3,0l0,0c-0.4,0-0.6,0-0.7,0c0.2,0.2,0.3,0.5,0.3,1c0,1.9,0,3.7,0.1,5.6
			c0,0.4-0.1,0.7-0.3,1c0.1,0,0.4,0,0.7,0c0.1,0,0.2,0,0.2,0c0.3,0,0.6,0,0.7,0c-0.2-0.2-0.3-0.5-0.3-1c0-2.9,0-4.4-0.1-4.5
			c0,0.1,0.7,1.6,1.9,4.5l0,0c0.1,0.3,0.2,0.5,0.2,0.8c0,0.1,0,0.1,0,0.2c0.1,0,0.3,0,0.7,0l0,0c0.1,0,0.2,0,0.4,0l0,0
			c0.4,0,0.6,0,0.7,0c-0.1-0.1-0.2-0.5-0.2-1C222.1,214.9,222,213,222,211.1L222,211.1z M225.7,217.8c-1.7,0-2.6-1.3-2.7-3.9
			c0-2.6,0.8-3.8,2.5-3.8s2.6,1.3,2.7,3.8C228.3,216.5,227.5,217.8,225.7,217.8L225.7,217.8z M225.6,210.9c-0.3,0-0.5,0.1-0.7,0.3
			s-0.3,0.5-0.4,0.8c-0.1,0.3-0.1,0.6-0.2,1c0,0.3,0,0.6,0,1s0,0.7,0.1,1c0,0.3,0.1,0.6,0.2,1c0.1,0.3,0.3,0.6,0.4,0.8
			c0.2,0.2,0.4,0.3,0.7,0.3c0.9,0,1.3-1,1.2-3C226.9,211.9,226.4,210.9,225.6,210.9L225.6,210.9z M236.5,210.2c-0.6,0-1.2,0-1.8,0
			c0.1,0.1,0.2,0.3,0.2,0.5c0,0.1,0,0.3,0,0.5l0,0c-0.4,2.8-0.6,4.3-0.6,4.5c0-0.2-0.4-1.8-1.2-4.6c0,0,0-0.1,0-0.2
			c0-0.1,0-0.2,0-0.2c0-0.2,0-0.3,0.1-0.4c-0.1,0-0.4,0-0.6,0l0,0c-0.1,0-0.1,0-0.2,0l0,0c-0.3,0-0.5,0-0.6,0
			c0.1,0.1,0.1,0.2,0.1,0.4c0,0.1,0,0.2,0,0.3s0,0.1,0,0.2c-0.5,2.7-0.9,4.3-0.9,4.6c0-0.4-0.3-1.9-0.8-4.5l0,0c0-0.2,0-0.3,0-0.5
			c0-0.3,0.1-0.4,0.2-0.5c-0.6,0-1.3,0-1.9,0c0.3,0.2,0.4,0.5,0.5,0.9c0.4,1.9,0.9,3.9,1.3,5.8c0,0.2,0,0.3,0.1,0.4
			c0,0.1,0,0.3-0.1,0.4c0.1,0,0.3,0,0.4,0l0,0c0.2,0,0.4,0,0.6,0l0,0c0.3,0,0.4,0,0.5,0c-0.1-0.1-0.1-0.2-0.1-0.4
			c0-0.1,0-0.3,0.1-0.5c0.6-2.6,0.9-4,0.9-4.1c0,0.1,0.4,1.5,1.1,4.1c0,0.2,0.1,0.4,0.1,0.5c0,0.2,0,0.3-0.1,0.4c0.1,0,0.3,0,0.5,0
			l0,0c0.2,0,0.4,0,0.5,0l0,0c0.1,0,0.3,0,0.4,0c0-0.1-0.1-0.2-0.1-0.4c0-0.1,0-0.3,0-0.6c0.3-1.9,0.7-3.8,1-5.7
			c0-0.2,0.1-0.3,0.1-0.3c0-0.1,0.1-0.1,0.1-0.3C236.3,210.3,236.4,210.3,236.5,210.2L236.5,210.2z M239.3,216.8c-0.3,0-0.5,0-0.8,0
			c-0.1-1.9-0.1-3.8-0.2-5.7c0-0.4,0.1-0.7,0.2-0.9c-0.2,0-0.4,0-0.8,0l0,0c-0.1,0-0.1,0-0.1,0l0,0c-0.3,0-0.6,0-0.8,0
			c0.2,0.2,0.3,0.6,0.3,0.9c0.1,1.9,0.1,3.8,0.2,5.6c0,0.4-0.1,0.7-0.2,1c0.1,0,0.4,0,0.7,0c1,0,2,0,3,0c0-0.5,0-1,0.1-1.5
			c-0.1,0.2-0.3,0.4-0.6,0.5S239.7,216.8,239.3,216.8L239.3,216.8z M243.8,216.8c-0.3,0-0.5,0-0.8,0c0-1-0.1-2.1-0.1-3.1
			c0.5,0,0.9,0,1,0c0.3,0,0.6,0.1,0.8,0.2c0-0.1,0-0.3-0.1-0.6c0-0.3,0-0.5,0-0.6c-0.2,0.1-0.4,0.2-0.7,0.2c-0.2,0-0.5,0-1.1,0
			c0-0.6-0.1-1.2-0.1-1.8c0.4,0,0.9,0,1.3,0c0.4,0,0.8,0.1,0.9,0.4c0-0.4,0-0.9-0.1-1.3c-1.2,0-2.3,0-3.5,0h-0.1c-0.1,0-0.1,0-0.1,0
			c0.2,0.2,0.3,0.6,0.3,0.9c0.1,1.9,0.2,3.8,0.3,5.6c0,0.4,0,0.7-0.2,1c0.1,0,0.4,0,0.7,0c1,0,2,0,3,0c0-0.5,0-1,0.1-1.5
			c-0.1,0.2-0.3,0.4-0.6,0.5C244.5,216.7,244.2,216.8,243.8,216.8L243.8,216.8z M247.5,210.2c-0.3,0-0.6,0-0.9,0l0,0
			c-0.3,0-0.6,0-0.8,0c0.2,0.2,0.3,0.6,0.3,0.9c0.1,1.9,0.2,3.8,0.3,5.6c0,0.4,0,0.7-0.2,1c0.1,0,0.4,0,0.7,0l0,0c0.4,0,0.8,0,1.2,0
			c1,0,1.7-0.3,2.2-1s0.6-1.6,0.6-2.8C250.7,211.4,249.6,210.2,247.5,210.2L247.5,210.2z M248.1,216.9c-0.1,0-0.3,0-0.5,0
			c-0.1-2-0.2-3.9-0.3-5.9c0.1,0,0.2,0,0.4,0c1.2,0,1.8,1,1.9,3C249.7,215.9,249.2,216.9,248.1,216.9L248.1,216.9z M256,214.2
			c-0.1,0-0.1,0-0.2,0c-0.4,0-0.7,0-0.8,0c0.2,0.2,0.4,0.5,0.4,1s0.1,1.1,0.1,1.6c-0.2,0.1-0.3,0.1-0.5,0.1c-0.5,0-1-0.3-1.4-0.8
			s-0.6-1.2-0.6-2.2c-0.1-0.9,0.1-1.7,0.4-2.2c0.3-0.5,0.7-0.8,1.4-0.8s1.2,0.3,1.6,0.9c0-0.5-0.1-1-0.1-1.5
			c-0.4-0.2-0.9-0.3-1.5-0.3c-1,0-1.8,0.3-2.3,1s-0.8,1.6-0.7,2.8s0.4,2.1,1,2.8s1.3,1.1,2.2,1.1c0.2,0,0.5,0,0.8-0.1
			c0.3-0.1,0.5-0.1,0.6-0.1c0.2,0,0.3,0,0.3,0.1c-0.1-0.9-0.1-1.7-0.2-2.6c0-0.4,0-0.7,0.3-1C256.7,214.2,256.4,214.2,256,214.2
			L256,214.2z M260.1,216.8c-0.3,0-0.5,0-0.8,0c-0.1-1-0.1-2.1-0.2-3.1c0.5,0,0.9,0,1.1,0c0.3,0,0.6,0.1,0.8,0.2
			c0-0.1,0-0.3-0.1-0.6c0-0.3,0-0.5,0-0.6c-0.2,0.1-0.4,0.2-0.7,0.2c-0.2,0-0.5,0-1.1,0c0-0.6-0.1-1.2-0.1-1.8c0.4,0,0.9,0,1.3,0
			c0.5,0,0.8,0.1,1,0.4c-0.1-0.4-0.1-0.9-0.1-1.3c-1.1,0-2.3,0-3.4,0c-0.1,0-0.1,0-0.1,0c-0.1,0-0.1,0-0.1,0
			c0.2,0.2,0.3,0.6,0.3,0.9c0.1,1.9,0.3,3.8,0.4,5.6c0,0.4,0,0.7-0.2,1c0.1,0,0.4,0,0.7,0c1,0,2,0,3,0c0-0.5,0-1,0-1.5
			c-0.1,0.2-0.3,0.4-0.5,0.5C260.8,216.7,260.5,216.8,260.1,216.8L260.1,216.8z"/>
	</g>
</g>
<g>
	<rect x="460.8" y="77.9" class="st4" width="630.4" height="302.4"/>
	<path class="st5" d="M581.8,204.2c-8.7,3-25.3,7.1-41.9,7.1c-22.9,0-39.4-5.8-51-16.9c-11.5-10.8-17.9-27.2-17.7-45.6
		c0.2-41.7,30.5-65.5,71.6-65.5c16.2,0,28.6,3.2,34.8,6.1l-6,22.7c-6.9-3-15.4-5.4-29.2-5.4c-23.6,0-41.5,13.4-41.5,40.5
		c0,25.9,16.2,41.1,39.4,41.1c6.5,0,11.7-0.7,14-1.9v-26.2h-19.3v-22.1h46.7V204.2z"/>
	<path class="st5" d="M722.4,146c0,41.1-24.9,66-61.6,66c-37.2,0-59-28.1-59-63.8c0-37.6,24-65.7,61-65.7
		C701.4,82.6,722.4,111.4,722.4,146z M631.8,147.7c0,24.6,11.5,41.9,30.5,41.9c19.2,0,30.1-18.2,30.1-42.6
		c0-22.5-10.8-41.9-30.3-41.9C643,105.1,631.8,123.3,631.8,147.7z"/>
	<path class="st5" d="M744.7,84.6h28.5v101.6H823V210h-78.3V84.6z"/>
	<path class="st5" d="M843.5,84.6h28.5v101.6h49.8V210h-78.3V84.6z"/>
	<path class="st5" d="M970.7,84.6V210h-28.5V84.6H970.7z"/>
	<path class="st5" d="M999.9,180.8c7.6,3.9,19.3,7.8,31.4,7.8c13,0,19.9-5.4,19.9-13.6c0-7.8-6-12.3-21-17.7
		c-20.8-7.3-34.4-18.8-34.4-37c0-21.4,17.9-37.8,47.4-37.8c14.1,0,24.6,3,32,6.3l-6.3,22.9c-5-2.4-14-6-26.2-6s-18.2,5.6-18.2,12.1
		c0,8,7.1,11.5,23.3,17.7c22.1,8.2,32.6,19.7,32.6,37.4c0,21-16.2,38.9-50.6,38.9c-14.3,0-28.5-3.7-35.5-7.6L999.9,180.8z"/>
	<path class="st5" d="M505.3,261.6v39.9c0,15.1,6.7,21.5,15.7,21.5c10,0,16.4-6.6,16.4-21.5v-39.9h8.8v39.3
		c0,20.7-10.9,29.2-25.5,29.2c-13.8,0-24.2-7.9-24.2-28.8v-39.7H505.3z"/>
	<path class="st5" d="M570.3,329v-67.4h9.5l21.6,34.1c5,7.9,8.9,15,12.1,21.9l0.2-0.1c-0.8-9-1-17.2-1-27.7v-28.2h8.2V329h-8.8
		l-21.4-34.2c-4.7-7.5-9.2-15.2-12.6-22.5l-0.3,0.1c0.5,8.5,0.7,16.6,0.7,27.8V329H570.3z"/>
	<path class="st5" d="M653.8,261.6V329h-8.7v-67.4H653.8z"/>
	<path class="st5" d="M692.8,329l-22-67.4h9.4l10.5,33.2c2.9,9.1,5.4,17.3,7.2,25.2h0.2c1.9-7.8,4.7-16.3,7.7-25.1l11.4-33.3h9.3
		L702.4,329H692.8z"/>
	<path class="st5" d="M777.7,297.4h-26.2v24.3h29.2v7.3h-37.9v-67.4h36.4v7.3h-27.7v21.3h26.2V297.4z"/>
	<path class="st5" d="M801,262.5c4.4-0.9,10.7-1.4,16.7-1.4c9.3,0,15.3,1.7,19.5,5.5c3.4,3,5.3,7.6,5.3,12.8
		c0,8.9-5.6,14.8-12.7,17.2v0.3c5.2,1.8,8.3,6.6,9.9,13.6c2.2,9.4,3.8,15.9,5.2,18.5h-9c-1.1-1.9-2.6-7.7-4.5-16.1
		c-2-9.3-5.6-12.8-13.5-13.1h-8.2V329H801V262.5z M809.7,293.2h8.9c9.3,0,15.2-5.1,15.2-12.8c0-8.7-6.3-12.5-15.5-12.6
		c-4.2,0-7.2,0.4-8.6,0.8V293.2z"/>
	<path class="st5" d="M862.6,318.4c3.9,2.4,9.6,4.4,15.6,4.4c8.9,0,14.1-4.7,14.1-11.5c0-6.3-3.6-9.9-12.7-13.4
		c-11-3.9-17.8-9.6-17.8-19.1c0-10.5,8.7-18.3,21.8-18.3c6.9,0,11.9,1.6,14.9,3.3l-2.4,7.1c-2.2-1.2-6.7-3.2-12.8-3.2
		c-9.2,0-12.7,5.5-12.7,10.1c0,6.3,4.1,9.4,13.4,13c11.4,4.4,17.2,9.9,17.2,19.8c0,10.4-7.7,19.4-23.6,19.4
		c-6.5,0-13.6-1.9-17.2-4.3L862.6,318.4z"/>
	<path class="st5" d="M930.8,261.6V329h-8.7v-67.4H930.8z"/>
	<path class="st5" d="M967.8,269h-20.5v-7.4h49.9v7.4h-20.6v60h-8.8V269z"/>
	<path class="st5" d="M1031.5,329v-28.6l-21.3-38.8h9.9l9.5,18.6c2.6,5.1,4.6,9.2,6.7,13.9h0.2c1.9-4.4,4.2-8.8,6.8-13.9l9.7-18.6
		h9.9l-22.6,38.7V329H1031.5z"/>
</g>
</svg>
